<?xml version="1.0" encoding="utf-8"?>
<!-- Generator: Adobe Illustrator 21.1.0, SVG Export Plug-In . SVG Version: 6.00 Build 0)  -->
<svg version="1.1" id="Layer_1" xmlns="http://www.w3.org/2000/svg" xmlns:xlink="http://www.w3.org/1999/xlink" x="0px" y="0px"
	 viewBox="0 0 900.6 132.2" style="enable-background:new 0 0 900.6 132.2;" xml:space="preserve">
<style type="text/css">
	.Arched_x0020_Green{fill:url(#SVGID_1_);stroke:#FFFFFF;stroke-width:0.25;stroke-miterlimit:1;}
	.st0{fill:#5E9732;}
</style>
<linearGradient id="SVGID_1_" gradientUnits="userSpaceOnUse" x1="73.6667" y1="303.6667" x2="74.3738" y2="302.9596">
	<stop  offset="0" style="stop-color:#20AC4B"/>
	<stop  offset="0.9831" style="stop-color:#19361A"/>
</linearGradient>
<g>
	<path class="st0" d="M100.3,82.1c8.1-7.8,20.5-19.6,20.5-19.6s-12.5-11.9-20.5-19.6c-8-7.7-16.2-1.5-18.6,1L66.4,59.8l43.3,2.7
		l-43.3,2.7l15.3,15.9C84,83.5,92.3,89.8,100.3,82.1"/>
	<path class="st0" d="M22.8,82.1C14.7,74.4,2.3,62.5,2.3,62.5s12.3-11.9,20.5-19.6c8.1-7.7,16.2-1.5,18.6,1l15.3,15.9l-43.3,2.7
		l43.3,2.7L41.4,81.1C39,83.6,30.9,89.8,22.8,82.1"/>
	<path class="st0" d="M41.9,23.7c7.8-8.1,19.6-20.5,19.6-20.5s11.7,12.3,19.6,20.5c7.8,8,1.5,16.2-1,18.6L64.2,57.6l-2.7-43.3
		l-2.7,43.3L42.9,42.4C40.4,39.9,34.2,31.7,41.9,23.7"/>
	<path class="st0" d="M60.3,91.5L46,105.3c1.7,1.7,3.4,3.5,5.1,5.3l9.8-10L60.3,91.5z"/>
	<path class="st0" d="M41.9,101.2c1.1,1.1,2.3,2.2,3.5,3.4l14.8-15.2l-0.6-9.3L40,99C40.5,99.8,41.1,100.5,41.9,101.2"/>
	<path class="st0" d="M77.1,105.3L62.7,91.5l-0.6,9l9.8,10C73.6,108.8,75.4,107,77.1,105.3"/>
	<path class="st0" d="M62.8,89.5l14.8,15.2c1.2-1.2,2.4-2.3,3.5-3.4c0.8-0.7,1.4-1.5,1.9-2.2L63.4,80.2L62.8,89.5z"/>
	<path class="st0" d="M83.7,98c3.8-6.7-1.3-13.3-3.5-15.4L64.2,67.3l-0.6,10.2L83.7,98z"/>
	<path class="st0" d="M62.2,102.2l-0.1-0.3l-0.5,8.8l-0.6-8.8l-0.1,0.3l-9.3,8.9c5.4,5.6,9.9,10.6,9.9,10.6s4.5-5,9.9-10.6
		L62.2,102.2z"/>
	<path class="st0" d="M59.5,77.5l-0.6-10.2L42.9,82.6c-2.2,2.1-7.3,8.7-3.5,15.4L59.5,77.5z"/>
	<path class="st0" d="M73.3,114.9c0-2.4,1.9-4.2,4.2-4.2c2.3,0,4.2,1.8,4.2,4.2c0,2.4-1.9,4.2-4.2,4.2
		C75.3,119.1,73.3,117.4,73.3,114.9 M77.6,118.4c1.9,0,3.4-1.5,3.4-3.5c0-2-1.5-3.5-3.4-3.5c-1.9,0-3.4,1.5-3.4,3.5
		C74.2,117,75.7,118.4,77.6,118.4 M76.7,117.4H76v-4.8h1.8c1.1,0,1.7,0.4,1.7,1.4c0,0.9-0.5,1.2-1.3,1.3l1.4,2.1h-0.8l-1.3-2.1h-0.8
		V117.4z M77.6,114.7c0.6,0,1.2-0.1,1.2-0.8c0-0.6-0.5-0.7-1-0.7h-1v1.5H77.6z"/>
</g>
<g>
	<path d="M149.2,70.5c-0.3,0-0.5,0.1-0.6,0.5l-3.7,9.8c-0.7,1.7-1,3.3-1,4.2c0,1.2,0.6,2.1,2.7,2.1h1c0.8,0,1,0.1,1,0.5
		c0,0.5-0.4,0.7-1.2,0.7c-2.2,0-5.1-0.2-7.2-0.2c-0.8,0-4.5,0.2-8.1,0.2c-0.9,0-1.3-0.1-1.3-0.7c0-0.4,0.3-0.5,0.8-0.5
		c0.6,0,1.6-0.1,2.1-0.1c3.1-0.4,4.4-2.7,5.8-6.1l17.2-42.9c0.8-2,1.2-2.7,1.9-2.7c0.6,0,1,0.6,1.7,2.2c1.6,3.8,12.6,31.6,16.9,42
		c2.6,6.2,4.6,7.1,6,7.4c1,0.2,2,0.3,2.9,0.3c0.5,0,0.9,0.1,0.9,0.5c0,0.5-0.6,0.7-3.1,0.7c-2.5,0-7.4,0-12.9-0.1
		c-1.2-0.1-2-0.1-2-0.5c0-0.4,0.3-0.5,1-0.6c0.5-0.1,1-0.8,0.6-1.6l-5.5-14.5c-0.1-0.3-0.3-0.5-0.7-0.5H149.2z M163.1,67.1
		c0.3,0,0.4-0.2,0.3-0.4l-6.1-16.9c-0.1-0.3-0.1-0.6-0.3-0.6c-0.2,0-0.3,0.3-0.4,0.6l-6.3,16.8c-0.1,0.3,0,0.5,0.3,0.5H163.1z"/>
	<path d="M200.6,44.6c0.1-1,0.7-1.5,1.2-1.5c0.6,0,1,0.3,1.8,1.8l16.1,32.4l16.1-32.8c0.5-1,1-1.4,1.6-1.4c0.5,0,1.2,0.6,1.4,1.8
		l5.5,35.9c0.5,3.6,1.1,5.2,2.9,5.7c1.7,0.5,2.7,0.5,3.4,0.5c0.5,0,1,0.2,1,0.5c0,0.5-0.7,0.7-1.6,0.7c-1.5,0-10-0.3-12.4-0.4
		c-1.4-0.1-1.8-0.3-1.8-0.7c0-0.3,0.3-0.5,0.7-0.6c0.3-0.1,0.5-0.8,0.3-2.5L233.4,59h-0.2l-12.9,26c-1.4,2.7-1.7,3.3-2.4,3.3
		c-0.8,0-1.4-1.2-2.4-2.9c-1.4-2.7-6.2-11.6-6.9-13.2c-0.5-1.1-4-8.4-6-12.4h-0.2l-2.9,22.7c-0.1,1-0.2,1.8-0.2,2.7
		c0,1.1,0.8,1.5,1.8,1.7c1,0.2,1.6,0.3,2.1,0.3c0.5,0,1,0.3,1,0.5c0,0.5-0.5,0.7-1.4,0.7c-2.5,0-5.3-0.2-6.4-0.2
		c-1.2,0-4,0.2-5.9,0.2c-0.6,0-1.1-0.1-1.1-0.7c0-0.3,0.3-0.5,1-0.5c0.5,0,0.9,0,1.8-0.1c1.6-0.2,2.2-2.5,2.5-4.4L200.6,44.6z"/>
	<path d="M260.1,61.2c0-8.8,0-10.5-0.1-12.3c-0.1-2-0.7-2.6-2.6-3.1c-0.5-0.1-1.5-0.2-2.4-0.2c-0.6,0-1-0.2-1-0.6
		c0-0.4,0.5-0.5,1.4-0.5c3.1,0,7,0.1,8.7,0.1c1.9,0,15.2,0.1,16.4,0c1.1-0.1,2-0.3,2.5-0.3c0.3-0.1,0.7-0.3,1-0.3
		c0.3,0,0.4,0.3,0.4,0.5c0,0.4-0.3,1.1-0.5,3.8c-0.1,0.6-0.2,3.1-0.3,3.8c-0.1,0.3-0.2,1-0.7,1c-0.4,0-0.5-0.3-0.5-0.8
		c0-0.4-0.1-1.4-0.4-2.1c-0.5-1-1-1.8-4-2.1c-1-0.1-8.2-0.3-9.4-0.3c-0.3,0-0.4,0.2-0.4,0.5v14.4c0,0.3,0.1,0.6,0.4,0.6
		c1.4,0,9.2,0,10.5-0.1c1.4-0.1,2.3-0.3,2.9-0.9c0.5-0.4,0.7-0.8,1-0.8c0.3,0,0.5,0.3,0.5,0.6c0,0.3-0.1,1.3-0.5,4.2
		c-0.1,1.2-0.3,3.5-0.3,3.9c0,0.5-0.1,1.3-0.6,1.3c-0.4,0-0.5-0.2-0.5-0.5c-0.1-0.6-0.1-1.4-0.2-2.1c-0.3-1.2-1.1-2.1-3.3-2.3
		c-1.1-0.1-7.9-0.3-9.4-0.3c-0.3,0-0.3,0.3-0.3,0.6v4.6c0,2-0.1,6.9,0,8.6c0.1,4,2,4.9,8.1,4.9c1.6,0,4.1-0.1,5.7-0.8
		c1.5-0.7,2.2-1.9,2.6-4.3c0.1-0.6,0.3-0.9,0.7-0.9c0.5,0,0.5,0.8,0.5,1.4c0,1.3-0.5,5.3-0.8,6.4c-0.4,1.5-1,1.5-3.2,1.5
		c-4.5,0-8.1-0.1-11.1-0.2c-2.9-0.1-5.2-0.1-7-0.1c-0.7,0-2,0.1-3.4,0.1c-1.4,0.1-2.9,0.1-4.2,0.1c-0.8,0-1.2-0.2-1.2-0.6
		c0-0.3,0.2-0.6,1-0.6c0.9,0,1.6-0.1,2.1-0.2c1.2-0.3,1.6-1.4,1.8-3.1c0.3-2.5,0.3-7,0.3-12.4V61.2z"/>
	<path d="M296.7,61.2c0-8.8,0-10.5-0.1-12.3c-0.1-2-0.7-2.6-2.6-3.1c-0.5-0.1-1.5-0.2-2.4-0.2c-0.6,0-1-0.2-1-0.6
		c0-0.4,0.5-0.5,1.4-0.5c3.1,0,7,0.1,8.2,0.1c2,0,7.5-0.1,9.4-0.1c3.8,0,8.2,0.3,11.4,2.5c1.7,1.2,4.2,4.1,4.2,8
		c0,4.3-2.5,8.1-8.3,12.8c5.3,6.6,9.6,11.8,13.2,15.4c3.3,3.3,5.5,3.6,6.4,3.8c0.6,0.1,1,0.1,1.4,0.1s0.8,0.3,0.8,0.6
		c0,0.5-0.4,0.6-1.2,0.6h-5.7c-3.3,0-5-0.3-6.6-1.2c-2.6-1.3-4.9-4-8.2-8.5c-2.4-3.1-4.9-7-5.7-7.9c-0.3-0.3-0.7-0.4-1.1-0.4
		l-5.4-0.1c-0.3,0-0.5,0.1-0.5,0.5v0.8c0,5.4,0.1,9.9,0.3,12.4c0.2,1.7,0.5,2.8,2.3,3.1c0.9,0.1,2.2,0.2,2.9,0.2
		c0.5,0,0.8,0.3,0.8,0.6c0,0.4-0.5,0.6-1.2,0.6c-3.5,0-8.5-0.2-9.4-0.2c-1.2,0-5,0.2-7.4,0.2c-0.8,0-1.2-0.2-1.2-0.6
		c0-0.3,0.2-0.6,1-0.6c0.9,0,1.6-0.1,2.1-0.2c1.2-0.3,1.6-1.4,1.8-3.1c0.3-2.5,0.3-7,0.3-12.4V61.2z M304.4,65.7
		c0,0.6,0.1,0.8,0.5,1c1.3,0.4,3.1,0.5,4.6,0.5c2.4,0,3.2-0.2,4.2-1c1.8-1.3,3.9-3.8,3.9-8.6c0-8.2-5.6-10.3-9.2-10.3
		c-1.5,0-2.9,0.1-3.6,0.2c-0.4,0.1-0.5,0.3-0.5,0.8V65.7z"/>
	<path d="M346.3,61.2c0-8.8,0-10.5-0.1-12.3c-0.1-2-0.8-2.7-2-3.1c-0.7-0.2-1.4-0.3-2.2-0.3c-0.6,0-1-0.1-1-0.7
		c0-0.3,0.5-0.5,1.4-0.5c2.3,0,6.4,0.1,8.1,0.1c1.5,0,5.4-0.1,7.7-0.1c0.8,0,1.2,0.1,1.2,0.5c0,0.5-0.3,0.7-1,0.7
		c-0.6,0-1.1,0.1-1.8,0.2c-1.6,0.3-2.1,1.1-2.3,3.1c-0.1,1.8-0.1,3.5-0.1,12.3v10.3c0,5.6,0,10.3,0.3,12.7c0.2,1.6,0.6,2.5,2.4,2.7
		c0.8,0.1,2.2,0.2,3.1,0.2c0.7,0,1,0.3,1,0.6c0,0.4-0.5,0.6-1.2,0.6c-4,0-8.1-0.2-9.7-0.2c-1.4,0-5.5,0.2-7.9,0.2
		c-0.8,0-1.2-0.2-1.2-0.6c0-0.3,0.2-0.6,1-0.6c0.9,0,1.6-0.1,2.1-0.2c1.2-0.3,1.6-1.1,1.8-2.8c0.3-2.4,0.3-7,0.3-12.6V61.2z"/>
	<path d="M371.7,82.8c-5.9-5-7.5-11.6-7.5-17.2c0-4,1.3-10.8,7-15.9c4.4-3.8,10.1-6.2,19.1-6.2c3.8,0,6,0.3,8.7,0.6
		c2.3,0.3,4.2,0.8,6,1c0.7,0.1,0.9,0.3,0.9,0.7c0,0.5-0.1,1.2-0.3,3.2c-0.1,1.9-0.1,5.1-0.2,6.3c-0.1,0.8-0.3,1.4-0.8,1.4
		c-0.5,0-0.6-0.5-0.6-1.2c-0.1-1.8-0.8-3.9-2.3-5.4c-2.1-2-6.1-3.4-11.6-3.4c-5.3,0-8.6,1-11.3,3.3c-4.4,3.8-5.5,9.4-5.5,15.1
		c0,13.8,10.7,20.4,18.7,20.4c5.3,0,8.3-0.4,10.7-3.1c1-1.2,1.8-2.8,2-3.9c0.1-0.9,0.3-1.2,0.8-1.2c0.4,0,0.7,0.5,0.7,1
		c0,0.7-0.7,5.7-1.3,7.7c-0.3,1-0.5,1.3-1.6,1.7c-2.4,1-7,1.3-10.9,1.3C384.1,89.1,377.2,87.4,371.7,82.8z"/>
	<path d="M424.3,73.7c-0.3,0-0.4,0.1-0.5,0.4l-3.2,7.8c-0.6,1.4-0.9,2.9-0.9,3.6c0,1,0.5,1.6,2.4,1.6h0.9c0.8,0,0.9,0.3,0.9,0.6
		c0,0.5-0.3,0.6-1,0.6c-2,0-4.8-0.2-6.7-0.2c-0.6,0-3.8,0.2-7,0.2c-0.8,0-1.1-0.1-1.1-0.6c0-0.3,0.2-0.6,0.7-0.6
		c0.5,0,1.2-0.1,1.8-0.1c2.7-0.4,3.8-2.2,5-5.1l15.7-36.6c0.7-1.6,1.2-2.3,1.8-2.3c0.9,0,1.2,0.5,1.8,1.8c1.4,3.2,11.5,27,15.4,35.8
		c2.3,5.3,4.1,6,5.1,6.2c0.9,0.1,1.6,0.2,2.3,0.2c0.5,0,0.8,0.2,0.8,0.6c0,0.5-0.3,0.6-2.6,0.6c-2.1,0-6.5,0-11.6-0.1
		c-1.1-0.1-1.8-0.1-1.8-0.5c0-0.3,0.1-0.5,0.8-0.6c0.4-0.1,0.8-0.6,0.5-1.3L439,74.1c-0.1-0.3-0.3-0.4-0.6-0.4H424.3z M437.1,70.5
		c0.3,0,0.3-0.1,0.3-0.3l-5.7-14.8c-0.1-0.2-0.1-0.5-0.3-0.5c-0.2,0-0.3,0.3-0.3,0.5l-5.8,14.7c-0.1,0.3,0,0.4,0.2,0.4H437.1z"/>
	<path d="M471.5,80.4c0.1,4.5,0.9,5.9,2.1,6.3c1,0.3,2.2,0.4,3.1,0.4c0.7,0,1,0.3,1,0.6c0,0.5-0.5,0.6-1.4,0.6
		c-3.9,0-6.7-0.2-7.8-0.2c-0.5,0-3.4,0.2-6.5,0.2c-0.8,0-1.4-0.1-1.4-0.6c0-0.3,0.4-0.6,1-0.6c0.8,0,1.9-0.1,2.7-0.3
		c1.6-0.4,1.8-2,1.8-7l0.5-34.4c0-1.2,0.4-2,1-2c0.8,0,1.6,0.9,2.6,1.9c0.8,0.8,9.8,10,18.5,18.5c4.1,4,12.1,12.2,13,13.1h0.3
		L501.5,51c-0.1-3.6-0.6-4.6-2-5.1c-0.9-0.3-2.3-0.3-3.1-0.3c-0.8,0-1-0.3-1-0.6c0-0.5,0.6-0.5,1.5-0.5c3.1,0,6.4,0.1,7.7,0.1
		c0.7,0,2.9-0.1,5.9-0.1c0.8,0,1.4,0.1,1.4,0.5c0,0.3-0.3,0.6-1,0.6c-0.6,0-1.1,0-1.8,0.2c-1.6,0.5-2.1,1.5-2.2,4.8L506,87.1
		c0,1.3-0.5,1.8-1,1.8c-1,0-1.8-0.6-2.5-1.2c-3.8-3.5-11.3-10.7-17.6-16.7c-6.6-6.3-12.9-13.3-14.1-14.4h-0.2L471.5,80.4z"/>
	<path d="M555.3,70.5c-0.3,0-0.5,0.1-0.6,0.5l-3.7,9.8c-0.7,1.7-1,3.3-1,4.2c0,1.2,0.6,2.1,2.7,2.1h1c0.8,0,1,0.1,1,0.5
		c0,0.5-0.4,0.7-1.2,0.7c-2.2,0-5.1-0.2-7.2-0.2c-0.8,0-4.5,0.2-8.1,0.2c-0.9,0-1.3-0.1-1.3-0.7c0-0.4,0.3-0.5,0.8-0.5
		c0.6,0,1.6-0.1,2.1-0.1c3.1-0.4,4.4-2.7,5.8-6.1l17.2-42.9c0.8-2,1.2-2.7,1.9-2.7c0.6,0,1,0.6,1.7,2.2c1.6,3.8,12.6,31.6,17,42
		c2.6,6.2,4.6,7.1,6,7.4c1,0.2,2.1,0.3,2.9,0.3c0.5,0,0.9,0.1,0.9,0.5c0,0.5-0.6,0.7-3.1,0.7c-2.5,0-7.4,0-12.9-0.1
		c-1.2-0.1-2-0.1-2-0.5c0-0.4,0.3-0.5,1-0.6c0.5-0.1,1-0.8,0.6-1.6l-5.5-14.5c-0.1-0.3-0.3-0.5-0.7-0.5H555.3z M569.2,67.1
		c0.3,0,0.4-0.2,0.3-0.4l-6.2-16.9c-0.1-0.3-0.1-0.6-0.3-0.6c-0.2,0-0.3,0.3-0.4,0.6l-6.3,16.8c-0.1,0.3,0,0.5,0.3,0.5H569.2z"/>
	<path d="M633,84.4c0,1.6,0,1.6-0.8,2c-4,2-10,2.6-14.7,2.6c-14.8,0-27.8-6.7-27.8-22.8c0-9.3,5-15.8,10.5-19
		c5.7-3.3,11.1-3.8,16.2-3.8c4.2,0,9.4,0.7,10.7,1c1.2,0.2,3.3,0.5,4.8,0.6c0.7,0.1,0.8,0.3,0.8,0.7c0,0.7-0.4,2.3-0.4,9.6
		c0,0.9-0.3,1.3-0.8,1.3c-0.4,0-0.5-0.3-0.6-0.8c-0.1-1.3-0.5-3.1-2-4.8c-1.8-1.8-6.3-4.4-13.1-4.4c-3.3,0-7.4,0.1-11.6,3.4
		c-3.4,2.7-5.5,7-5.5,14.1c0,12.5,8.1,21.6,20.9,21.6c1.6,0,2.8,0,4.2-0.6c0.9-0.4,1.2-1,1.2-2.1v-5.3c0-2.9,0-5.1-0.1-6.8
		c-0.1-2-0.7-2.6-2.6-3.1c-0.5-0.1-1.5-0.2-2.3-0.2c-0.5,0-1-0.3-1-0.6c0-0.5,0.5-0.5,1.3-0.5c3.1,0,7.4,0.1,9.2,0.1
		c1.9,0,5.1-0.1,7-0.1c0.8,0,1.2,0.1,1.2,0.5c0,0.3-0.3,0.6-0.8,0.6c-0.5,0-1,0.1-1.6,0.2c-1.6,0.3-2.3,1.1-2.3,3.1
		c-0.1,1.8-0.1,4.1-0.1,7V84.4z"/>
	<path d="M650.8,81.8c-6.7-5.9-8.5-13.5-8.5-20.2c0-4.6,1.4-12.7,8-18.7c4.9-4.5,11.4-7.2,21.6-7.2c4.2,0,6.8,0.3,9.9,0.7
		c2.6,0.3,4.8,1,6.8,1.2c0.8,0.1,1,0.4,1,0.8c0,0.5-0.2,1.4-0.3,3.8c-0.1,2.3-0.1,6-0.2,7.4c-0.1,1-0.2,1.6-0.8,1.6
		c-0.5,0-0.7-0.5-0.7-1.5c-0.1-2.1-1-4.5-2.7-6.3c-2.3-2.4-7.6-4.2-13.9-4.2c-5.9,0-9.8,1.5-12.8,4.2c-5,4.6-6.3,11.1-6.3,17.7
		c0,16.3,12.4,24.3,21.5,24.3c6.1,0,9.8-0.7,12.5-3.8c1.2-1.3,2.1-3.3,2.3-4.5c0.2-1.1,0.3-1.4,0.9-1.4c0.5,0,0.6,0.5,0.6,1
		c0,0.8-0.8,6.8-1.5,9.1c-0.3,1.2-0.6,1.5-1.8,2c-2.7,1.1-7.9,1.6-12.3,1.6C664.9,89.3,657,87.2,650.8,81.8z"/>
	<path d="M701.7,61.2c0-8.8,0-10.5-0.1-12.3c-0.1-2-0.7-2.6-2.6-3.1c-0.5-0.1-1.5-0.2-2.4-0.2c-0.6,0-1-0.2-1-0.6
		c0-0.4,0.5-0.5,1.4-0.5c3.1,0,7,0.1,8.2,0.1c2,0,7.5-0.1,9.4-0.1c3.8,0,8.2,0.3,11.4,2.5c1.7,1.2,4.2,4.1,4.2,8
		c0,4.3-2.5,8.1-8.3,12.8c5.3,6.6,9.6,11.8,13.2,15.4c3.3,3.3,5.5,3.6,6.4,3.8c0.6,0.1,1,0.1,1.4,0.1c0.5,0,0.8,0.3,0.8,0.6
		c0,0.5-0.4,0.6-1.2,0.6h-5.7c-3.3,0-5-0.3-6.6-1.2c-2.6-1.3-4.9-4-8.2-8.5c-2.4-3.1-4.9-7-5.7-7.9c-0.3-0.3-0.7-0.4-1.1-0.4
		l-5.4-0.1c-0.3,0-0.5,0.1-0.5,0.5v0.8c0,5.4,0.1,9.9,0.3,12.4c0.2,1.7,0.5,2.8,2.3,3.1c0.9,0.1,2.2,0.2,2.9,0.2
		c0.5,0,0.8,0.3,0.8,0.6c0,0.4-0.5,0.6-1.2,0.6c-3.5,0-8.5-0.2-9.4-0.2c-1.2,0-5,0.2-7.4,0.2c-0.7,0-1.2-0.2-1.2-0.6
		c0-0.3,0.2-0.6,1-0.6c0.9,0,1.6-0.1,2.1-0.2c1.2-0.3,1.6-1.4,1.8-3.1c0.3-2.5,0.3-7,0.3-12.4V61.2z M709.4,65.7
		c0,0.6,0.1,0.8,0.5,1c1.3,0.4,3.1,0.5,4.6,0.5c2.4,0,3.2-0.2,4.2-1c1.8-1.3,3.9-3.8,3.9-8.6c0-8.2-5.6-10.3-9.2-10.3
		c-1.5,0-2.9,0.1-3.6,0.2c-0.4,0.1-0.5,0.3-0.5,0.8V65.7z"/>
	<path d="M750,61.2c0-8.8,0-10.5-0.1-12.3c-0.1-2-0.7-2.6-2.6-3.1c-0.5-0.1-1.5-0.2-2.4-0.2c-0.6,0-1-0.2-1-0.6
		c0-0.4,0.5-0.5,1.4-0.5c3.1,0,7,0.1,8.7,0.1c1.9,0,15.2,0.1,16.4,0c1.1-0.1,2-0.3,2.5-0.3c0.3-0.1,0.7-0.3,1-0.3
		c0.3,0,0.4,0.3,0.4,0.5c0,0.4-0.3,1.1-0.5,3.8c-0.1,0.6-0.2,3.1-0.3,3.8c-0.1,0.3-0.2,1-0.7,1c-0.4,0-0.5-0.3-0.5-0.8
		c0-0.4-0.1-1.4-0.4-2.1c-0.5-1-1-1.8-4-2.1c-1-0.1-8.2-0.3-9.4-0.3c-0.3,0-0.4,0.2-0.4,0.5v14.4c0,0.3,0.1,0.6,0.4,0.6
		c1.4,0,9.2,0,10.5-0.1c1.4-0.1,2.3-0.3,2.9-0.9c0.5-0.4,0.7-0.8,1-0.8c0.3,0,0.5,0.3,0.5,0.6c0,0.3-0.1,1.3-0.5,4.2
		c-0.1,1.2-0.3,3.5-0.3,3.9c0,0.5-0.1,1.3-0.6,1.3c-0.4,0-0.5-0.2-0.5-0.5c-0.1-0.6-0.1-1.4-0.2-2.1c-0.3-1.2-1.1-2.1-3.4-2.3
		c-1.1-0.1-7.9-0.3-9.4-0.3c-0.3,0-0.3,0.3-0.3,0.6v4.6c0,2-0.1,6.9,0,8.6c0.1,4,2,4.9,8.1,4.9c1.6,0,4.1-0.1,5.7-0.8
		c1.5-0.7,2.2-1.9,2.6-4.3c0.1-0.6,0.3-0.9,0.7-0.9c0.5,0,0.5,0.8,0.5,1.4c0,1.3-0.5,5.3-0.8,6.4c-0.4,1.5-1,1.5-3.2,1.5
		c-4.5,0-8.1-0.1-11.1-0.2c-2.9-0.1-5.2-0.1-7-0.1c-0.7,0-2,0.1-3.4,0.1c-1.4,0.1-2.9,0.1-4.2,0.1c-0.8,0-1.2-0.2-1.2-0.6
		c0-0.3,0.2-0.6,1-0.6c0.9,0,1.6-0.1,2.1-0.2c1.2-0.3,1.6-1.4,1.8-3.1c0.3-2.5,0.3-7,0.3-12.4V61.2z"/>
	<path d="M786.6,61.2c0-8.8,0-10.5-0.1-12.3c-0.1-2-0.7-2.6-2.6-3.1c-0.5-0.1-1.5-0.2-2.4-0.2c-0.6,0-1-0.2-1-0.6
		c0-0.4,0.5-0.5,1.4-0.5c3.1,0,7,0.1,8.7,0.1c1.8,0,6.2-0.1,9.8-0.1c7.5,0,17.6,0,24.2,6.6c3,3,5.7,7.9,5.7,14.8
		c0,7.3-3.1,12.8-6.6,16.2c-2.7,2.7-9.1,6.8-20.2,6.8c-2.2,0-4.8-0.2-7.2-0.3c-2.4-0.2-4.6-0.3-6.1-0.3c-0.7,0-2,0.1-3.4,0.1
		c-1.4,0.1-2.9,0.1-4.2,0.1c-0.8,0-1.2-0.2-1.2-0.6c0-0.3,0.2-0.6,1-0.6c0.9,0,1.6-0.1,2.1-0.2c1.2-0.3,1.6-1.4,1.8-3.1
		c0.3-2.5,0.3-7,0.3-12.4V61.2z M794.7,67.6c0,6.2,0.1,10.6,0.1,11.8c0.1,1.4,0.2,3.5,0.7,4.1c0.8,1.1,3.1,2.3,7.9,2.3
		c5.5,0,9.5-1,13.1-4c3.9-3.2,5.1-8.4,5.1-14.4c0-7.4-2.9-12.2-5.6-14.5c-5.5-4.9-12.1-5.5-16.8-5.5c-1.2,0-3.2,0.1-3.7,0.4
		c-0.5,0.2-0.8,0.5-0.8,1.2c-0.1,2-0.1,6.8-0.1,11.3V67.6z"/>
	<path d="M838.6,61.2c0-8.8,0-10.5-0.1-12.3c-0.1-2-0.8-2.7-2.1-3.1c-0.7-0.2-1.4-0.3-2.2-0.3c-0.6,0-1-0.1-1-0.7
		c0-0.3,0.5-0.5,1.4-0.5c2.3,0,6.4,0.1,8.1,0.1c1.5,0,5.4-0.1,7.7-0.1c0.8,0,1.2,0.1,1.2,0.5c0,0.5-0.3,0.7-1,0.7
		c-0.6,0-1.1,0.1-1.8,0.2c-1.6,0.3-2.1,1.1-2.3,3.1c-0.1,1.8-0.1,3.5-0.1,12.3v10.3c0,5.6,0,10.3,0.3,12.7c0.2,1.6,0.6,2.5,2.4,2.7
		c0.8,0.1,2.2,0.2,3.1,0.2c0.7,0,1,0.3,1,0.6c0,0.4-0.5,0.6-1.2,0.6c-4,0-8.1-0.2-9.7-0.2c-1.4,0-5.5,0.2-7.9,0.2
		c-0.8,0-1.2-0.2-1.2-0.6c0-0.3,0.2-0.6,1-0.6c0.9,0,1.6-0.1,2.1-0.2c1.2-0.3,1.6-1.1,1.8-2.8c0.3-2.4,0.3-7,0.3-12.6V61.2z"/>
	<path d="M873.1,47.9l-9,0.2c-3.5,0.1-4.9,0.5-5.8,1.8c-0.6,0.8-0.9,1.6-1,2c-0.1,0.5-0.3,0.8-0.7,0.8c-0.4,0-0.5-0.3-0.5-1
		c0-1,1.2-6.6,1.3-7c0.1-0.8,0.3-1.1,0.7-1.1c0.5,0,1.1,0.5,2.6,0.7c1.8,0.2,4,0.3,6,0.3h24.4c1.9,0,3.2-0.1,4.1-0.3
		c1-0.1,1.4-0.3,1.6-0.3c0.4,0,0.5,0.3,0.5,1.2c0,1.2-0.1,5.5-0.1,7c-0.1,0.6-0.2,1-0.5,1c-0.5,0-0.6-0.3-0.7-1.2l-0.1-0.6
		c-0.1-1.5-1.7-3.3-7.1-3.3l-7.6-0.1v23.5c0,5.3,0.1,9.9,0.3,12.4c0.2,1.6,0.5,2.7,2.3,3c0.8,0.1,2.2,0.2,3.1,0.2c0.7,0,1,0.3,1,0.6
		c0,0.4-0.5,0.6-1.2,0.6c-4,0-8-0.2-9.7-0.2c-1.4,0-5.5,0.2-7.9,0.2c-0.8,0-1.2-0.2-1.2-0.6c0-0.3,0.2-0.6,1-0.6
		c0.9,0,1.6-0.1,2.1-0.2c1.2-0.3,1.6-1.4,1.8-3.1c0.3-2.5,0.3-7,0.3-12.4V47.9z"/>
</g>
<g>
	<path d="M265.2,121.4c-0.1-2.3-0.2-5.1-0.2-7.6h-0.1c-0.6,2.2-1.3,4.6-2.1,6.9l-2.6,7.8h-2.5l-2.4-7.7c-0.7-2.3-1.3-4.8-1.8-7h-0.1
		c-0.1,2.4-0.2,5.2-0.3,7.7l-0.4,7.2h-3.1l1.2-18h4.3l2.3,7.2c0.6,2.1,1.2,4.2,1.7,6.2h0.1c0.5-1.9,1.1-4.2,1.8-6.3l2.5-7.2h4.3
		l1,18h-3.2L265.2,121.4z"/>
	<path d="M299.3,119.6c0,6-3.7,9.5-8.6,9.5c-5.1,0-8.3-3.9-8.3-9.2c0-5.5,3.5-9.4,8.5-9.4C296.2,110.5,299.3,114.5,299.3,119.6z
		 M285.8,119.9c0,3.7,1.8,6.6,5,6.6c3.2,0,5-3,5-6.7c0-3.4-1.7-6.6-5-6.6C287.6,113.1,285.8,116.2,285.8,119.9z"/>
	<path d="M313.3,128.8v-18h3.7l4.6,7.7c1.2,2,2.2,4.1,3.1,6h0.1c-0.2-2.4-0.3-4.7-0.3-7.5v-6.3h3v18h-3.4l-4.7-7.9
		c-1.1-1.9-2.3-4.2-3.2-6.2l-0.1,0c0.1,2.3,0.2,4.7,0.2,7.7v6.4H313.3z"/>
	<path d="M352.6,120.8h-6.8v5.3h7.6v2.7h-10.9v-18H353v2.7h-7.2v4.6h6.8V120.8z"/>
	<path d="M371.6,128.8v-7.5l-5.7-10.5h3.7l2.2,4.6c0.6,1.3,1.1,2.3,1.5,3.6h0.1c0.4-1.1,1-2.3,1.6-3.6l2.2-4.6h3.7l-6,10.4v7.6
		H371.6z"/>
	<path d="M410.8,110.8h10.4v2.7h-7.1v5h6.6v2.7h-6.6v7.6h-3.3V110.8z"/>
	<path d="M451.6,119.6c0,6-3.7,9.5-8.7,9.5c-5.1,0-8.3-3.9-8.3-9.2c0-5.5,3.5-9.4,8.6-9.4C448.5,110.5,451.6,114.5,451.6,119.6z
		 M438.1,119.9c0,3.7,1.8,6.6,5,6.6c3.2,0,5-3,5-6.7c0-3.4-1.7-6.6-5-6.6C439.8,113.1,438.1,116.2,438.1,119.9z"/>
	<path d="M465.7,111c1.2-0.2,3.1-0.4,5-0.4c2.6,0,4.3,0.4,5.6,1.4c1,0.8,1.5,2.1,1.5,3.6c0,2.3-1.6,3.9-3.3,4.5v0.1
		c1.3,0.5,2.1,1.7,2.5,3.5c0.6,2.2,1,4.3,1.4,5H475c-0.3-0.5-0.7-2-1.2-4.2c-0.5-2.3-1.4-3.1-3.2-3.1H469v7.4h-3.3V111z M469,119
		h1.9c2.2,0,3.6-1.2,3.6-3c0-2-1.4-2.9-3.5-2.9c-1,0-1.7,0.1-2,0.2V119z"/>
	<path d="M512.4,123.7l-1.5,5.1h-3.4l5.8-18h4.2l5.8,18h-3.5l-1.6-5.1H512.4z M517.6,121.2l-1.4-4.4c-0.3-1.1-0.6-2.3-0.9-3.4h-0.1
		c-0.3,1-0.5,2.3-0.9,3.4l-1.4,4.4H517.6z"/>
	<path d="M550.9,128c-1.2,0.4-3.4,1-5.8,1c-3,0-5.3-0.8-7-2.4c-1.6-1.5-2.5-3.9-2.5-6.6c0-5.7,4.1-9.3,10-9.3c2.2,0,4,0.5,4.8,0.9
		l-0.7,2.6c-1-0.4-2.2-0.8-4.1-0.8c-3.8,0-6.5,2.3-6.5,6.5c0,4.1,2.5,6.5,6.2,6.5c1.2,0,2.1-0.2,2.5-0.4v-4.5h-3.2v-2.6h6.4V128z"/>
	<path d="M565.4,111c1.2-0.2,3.1-0.4,5-0.4c2.6,0,4.4,0.4,5.6,1.4c1,0.8,1.5,2.1,1.5,3.6c0,2.3-1.6,3.9-3.3,4.5v0.1
		c1.3,0.5,2.1,1.7,2.5,3.5c0.6,2.2,1,4.3,1.4,5h-3.4c-0.3-0.5-0.7-2-1.2-4.2c-0.5-2.3-1.4-3.1-3.2-3.1h-1.7v7.4h-3.3V111z
		 M568.7,119h1.9c2.2,0,3.6-1.2,3.6-3c0-2-1.4-2.9-3.5-2.9c-1,0-1.7,0.1-2,0.2V119z"/>
	<path d="M595.1,110.8v18h-3.3v-18H595.1z"/>
	<path d="M623,128.2c-0.8,0.4-2.5,0.8-4.6,0.8c-5.7,0-9.2-3.6-9.2-9.1c0-5.9,4.1-9.5,9.6-9.5c2.2,0,3.7,0.5,4.4,0.8l-0.7,2.6
		c-0.9-0.4-2-0.7-3.5-0.7c-3.7,0-6.3,2.3-6.3,6.6c0,3.9,2.3,6.5,6.3,6.5c1.3,0,2.7-0.3,3.6-0.7L623,128.2z"/>
	<path d="M640.2,110.8v10.5c0,3.5,1.5,5.2,3.7,5.2c2.4,0,3.8-1.6,3.8-5.2v-10.5h3.3v10.3c0,5.6-2.9,8-7.2,8c-4.2,0-6.9-2.3-6.9-8
		v-10.3H640.2z"/>
	<path d="M666,110.8h3.3V126h7.4v2.7H666V110.8z"/>
	<path d="M691.2,113.5h-5.1v-2.7h13.6v2.7h-5.2v15.2h-3.3V113.5z"/>
	<path d="M716.2,110.8v10.5c0,3.5,1.5,5.2,3.7,5.2c2.4,0,3.8-1.6,3.8-5.2v-10.5h3.3v10.3c0,5.6-2.9,8-7.2,8c-4.2,0-6.9-2.3-6.9-8
		v-10.3H716.2z"/>
	<path d="M742,111c1.2-0.2,3.1-0.4,5-0.4c2.6,0,4.3,0.4,5.5,1.4c1,0.8,1.5,2.1,1.5,3.6c0,2.3-1.6,3.9-3.3,4.5v0.1
		c1.3,0.5,2.1,1.7,2.5,3.5c0.6,2.2,1,4.3,1.4,5h-3.4c-0.3-0.5-0.7-2-1.2-4.2c-0.5-2.3-1.4-3.1-3.2-3.1h-1.7v7.4H742V111z M745.2,119
		h1.9c2.2,0,3.6-1.2,3.6-3c0-2-1.4-2.9-3.5-2.9c-1,0-1.7,0.1-2,0.2V119z"/>
	<path d="M778.4,120.8h-6.8v5.3h7.6v2.7h-10.9v-18h10.5v2.7h-7.2v4.6h6.8V120.8z"/>
</g>
</svg>
